<mxfile host="www.draw.io" modified="2019-10-29T19:25:48.968Z" agent="Mozilla/5.0 (Windows NT 10.0; Win64; x64) AppleWebKit/537.36 (KHTML, like Gecko) Chrome/77.0.3865.120 Safari/537.36" etag="gDlcSL6BMSLm3xG_XTFg" version="12.1.8" type="github" pages="1">
  <diagram id="rSEBrsf50ycZ1arHumOY" name="Page-1">
    <mxGraphModel dx="768" dy="455" grid="1" gridSize="10" guides="1" tooltips="1" connect="1" arrows="1" fold="1" page="1" pageScale="1" pageWidth="850" pageHeight="1100" math="0" shadow="0">
      <root>
        <mxCell id="0"/>
        <mxCell id="1" parent="0"/>
        <mxCell id="kKye-fZz5D_KjmSDZU_s-1" value="Thread Pool&lt;br&gt;Libuv" style="rounded=0;whiteSpace=wrap;html=1;" vertex="1" parent="1">
          <mxGeometry x="320" y="80" width="120" height="80" as="geometry"/>
        </mxCell>
        <mxCell id="kKye-fZz5D_KjmSDZU_s-2" value="OS / Async" style="rounded=0;whiteSpace=wrap;html=1;" vertex="1" parent="1">
          <mxGeometry x="320" y="200" width="120" height="80" as="geometry"/>
        </mxCell>
        <mxCell id="kKye-fZz5D_KjmSDZU_s-3" value="Eventloop" style="rounded=0;whiteSpace=wrap;html=1;" vertex="1" parent="1">
          <mxGeometry x="150" y="140" width="120" height="80" as="geometry"/>
        </mxCell>
        <mxCell id="kKye-fZz5D_KjmSDZU_s-4" value="To remember the eventloop is signle threaded but not the c++ libraries that node calls.&amp;nbsp;&lt;br&gt;Some of the libraries use libuv which is a trhead poll that you can configure via environment variables.&amp;nbsp;&lt;br&gt;Othres use the underling operating system simply sends the task to the os and the os manage alll the multithreading etc.&amp;nbsp;&lt;br&gt;Examples http use the os/async functions. fs use the threadpool.&amp;nbsp;&lt;br&gt;" style="text;html=1;resizable=0;points=[];autosize=1;align=left;verticalAlign=top;spacingTop=-4;" vertex="1" parent="1">
          <mxGeometry x="125" y="356" width="660" height="60" as="geometry"/>
        </mxCell>
      </root>
    </mxGraphModel>
  </diagram>
</mxfile>
